<!-- Order Ride illustration by Storyset - https://storyset.com/illustration/order-ride/bro -->
<svg width="480" height="360" viewBox="0 0 480 360" fill="none" xmlns="http://www.w3.org/2000/svg">
  <g>
    <rect x="60" y="220" width="360" height="60" rx="28" fill="#fff" stroke="#1746a2" stroke-width="4"/>
    <ellipse cx="120" cy="295" rx="28" ry="18" fill="#38bdf8" stroke="#1746a2" stroke-width="4"/>
    <ellipse cx="360" cy="295" rx="28" ry="18" fill="#38bdf8" stroke="#1746a2" stroke-width="4"/>
    <!-- conductor -->
    <ellipse cx="170" cy="240" rx="11" ry="16" fill="#fbbf24"/>
    <rect x="160" y="235" width="20" height="30" rx="7" fill="#fbbf24"/>
    <!-- bot -->
    <ellipse cx="390" cy="180" rx="18" ry="18" fill="#21e6c1" stroke="#1746a2" stroke-width="3"/>
    <rect x="376" y="170" width="28" height="18" rx="9" fill="#21e6c1"/>
    <circle cx="384" cy="180" r="3" fill="#1746a2"/>
    <circle cx="396" cy="180" r="3" fill="#1746a2"/>
    <rect x="387" y="187" width="8" height="2" rx="1" fill="#1746a2"/>
    <!-- líneas de comunicación -->
    <path d="M 190 240 Q 320 180 372 180" stroke="#21a1e6" stroke-width="2" stroke-dasharray="4 3" fill="none"/>
    <text x="110" y="320" font-size="1.1em" fill="#1746a2">Auto inteligente</text>
    <text x="350" y="320" font-size="1.1em" fill="#1746a2">IoT</text>
    <text x="370" y="170" font-size="0.95em" fill="#21e6c1">Bot CheekUS</text>
    <text x="210" y="250" font-size="0.95em" fill="#1746a2">Conductor</text>
    <text x="230" y="210" font-size="1.05em" fill="#21a1e6">Comunicación segura</text>
  </g>
</svg>
